<?xml version="1.0" encoding="utf-8"?>
<!-- Generator: Adobe Illustrator 20.1.0, SVG Export Plug-In . SVG Version: 6.00 Build 0)  -->
<svg version="1.1" id="Ebene_1" xmlns="http://www.w3.org/2000/svg" xmlns:xlink="http://www.w3.org/1999/xlink" x="0px" y="0px"
	 width="160px" height="49px" viewBox="0 0 160 49" style="enable-background:new 0 0 160 49;" xml:space="preserve">
<style type="text/css">
	.st0{fill:#FFFFFF;}
	.st1{fill-rule:evenodd;clip-rule:evenodd;fill:url(#SVGID_1_);}
	.st2{fill-rule:evenodd;clip-rule:evenodd;fill:url(#SVGID_2_);}
	.st3{fill-rule:evenodd;clip-rule:evenodd;fill:url(#SVGID_3_);}
	.st4{fill-rule:evenodd;clip-rule:evenodd;fill:url(#SVGID_4_);}
	.st5{fill-rule:evenodd;clip-rule:evenodd;fill:url(#SVGID_5_);}
	.st6{fill-rule:evenodd;clip-rule:evenodd;fill:url(#SVGID_6_);}
	.st7{fill-rule:evenodd;clip-rule:evenodd;fill:url(#SVGID_7_);}
	.st8{fill-rule:evenodd;clip-rule:evenodd;fill:url(#SVGID_8_);}
	.st9{fill-rule:evenodd;clip-rule:evenodd;fill:#FFFFFF;}
	.st10{fill-rule:evenodd;clip-rule:evenodd;fill:#1C4F7D;}
</style>
<g>
	<path class="st0" d="M45.9,10.5l5.3-1.3v25.4c0,2.8,0.8,4.4,2.5,5c-0.8,1.5-2.2,2.3-4.2,2.3c-2.4,0-3.6-1.7-3.6-5V10.5L45.9,10.5z
		 M54.1,30.2c0-3.4,1-6.2,3-8.4c2-2.2,4.6-3.2,7.9-3.2c3.4,0,6.1,1,8,3.1c1.9,2.1,2.8,4.9,2.8,8.5c0,3.6-1,6.4-2.9,8.6
		c-1.9,2.1-4.6,3.2-7.9,3.2c-3.4,0-6.1-1.1-8-3.2C55.1,36.5,54.1,33.7,54.1,30.2L54.1,30.2z M59.6,30.2c0,5,1.8,7.5,5.4,7.5
		c1.6,0,2.9-0.6,3.9-1.9c1-1.3,1.4-3.1,1.4-5.5c0-4.9-1.8-7.4-5.3-7.4c-1.6,0-2.9,0.6-3.9,1.9C60.1,26,59.6,27.8,59.6,30.2
		L59.6,30.2z M76.4,30.2c0-3.4,1-6.2,3-8.4c2-2.2,4.6-3.2,7.9-3.2c3.4,0,6.1,1,8,3.1c1.9,2.1,2.8,4.9,2.8,8.5c0,3.6-1,6.4-2.9,8.6
		c-1.9,2.1-4.6,3.2-7.9,3.2c-3.4,0-6.1-1.1-8-3.2C77.3,36.5,76.4,33.7,76.4,30.2L76.4,30.2z M81.8,30.2c0,5,1.8,7.5,5.4,7.5
		c1.6,0,2.9-0.6,3.9-1.9c1-1.3,1.4-3.1,1.4-5.5c0-4.9-1.8-7.4-5.3-7.4c-1.6,0-2.9,0.6-3.9,1.9C82.3,26,81.8,27.8,81.8,30.2
		L81.8,30.2z M114.6,41.5v-1.4c-0.4,0.5-1.2,0.9-2.2,1.3c-1,0.4-2.1,0.5-3.2,0.5c-3.1,0-5.6-1-7.4-3c-1.8-2-2.7-4.8-2.7-8.3
		c0-3.6,1-6.5,3.1-8.7c2.1-2.2,4.7-3.4,7.8-3.4c1.7,0,3.3,0.4,4.7,1v-9l5.3-1.3v32.2H114.6L114.6,41.5z M114.6,24.3
		c-1.1-0.9-2.3-1.3-3.5-1.3c-2.1,0-3.7,0.6-4.9,1.9c-1.1,1.3-1.7,3.1-1.7,5.5c0,4.7,2.3,7,6.8,7c0.5,0,1.1-0.2,1.9-0.5
		c0.7-0.3,1.2-0.6,1.4-0.9V24.3L114.6,24.3z M121.6,40l1.9-4.2c1.6,1.3,3.4,1.9,5.3,1.9c2,0,3.1-0.7,3.1-2.2c0-0.9-0.3-1.6-0.9-2.1
		c-0.6-0.5-1.8-1.2-3.6-1.9c-3.9-1.6-5.8-3.9-5.8-6.8c0-1.9,0.7-3.5,2.2-4.6c1.5-1.1,3.4-1.6,5.7-1.6c2.3,0,4.6,0.5,6.6,1.6
		l-1.5,4.1c-1.2-1-2.8-1.5-4.8-1.5c-1.8,0-2.8,0.7-2.8,2.2c0,0.6,0.3,1.1,0.9,1.6c0.6,0.5,1.9,1.1,3.9,1.9c2,0.8,3.4,1.7,4.3,2.8
		c0.9,1.1,1.3,2.4,1.3,4c0,2.1-0.8,3.7-2.3,4.9c-1.6,1.2-3.7,1.8-6.3,1.8c-1.5,0-2.7-0.1-3.6-0.4C124.2,41.3,123,40.8,121.6,40
		L121.6,40z M159.6,31.8h-16.1c0.1,1.8,0.7,3.2,1.9,4.2c1.1,1,2.7,1.5,4.6,1.5c2.4,0,4.2-0.6,5.5-1.9l2,4c-1.8,1.5-4.6,2.3-8.3,2.3
		c-3.4,0-6.2-1-8.2-3c-2-2-3-4.8-3-8.4c0-3.6,1.1-6.4,3.3-8.6c2.2-2.2,4.8-3.3,7.9-3.3c3.3,0,5.9,1,7.9,2.9c2,1.9,3,4.4,3,7.5
		C160,29.5,159.8,30.5,159.6,31.8L159.6,31.8z M143.6,27.9h11.1c-0.4-3.3-2.2-4.9-5.5-4.9C146.2,22.9,144.4,24.6,143.6,27.9z"/>
	<g>
		<g>
			<linearGradient id="SVGID_1_" gradientUnits="userSpaceOnUse" x1="22.2959" y1="4.7854" x2="5.0744" y2="4.7854">
				<stop  offset="0" style="stop-color:#00639B"/>
				<stop  offset="1" style="stop-color:#63C2D0"/>
			</linearGradient>
			<path class="st1" d="M5.1,7.6C11.7,9.7,17.5,9.4,22.3,8c-1-2.6-1.6-5.2-1.9-7.5c-0.2,0-0.5,0-0.7,0C13.5,0.5,8.1,3.3,5.1,7.6z"/>
			<linearGradient id="SVGID_2_" gradientUnits="userSpaceOnUse" x1="30.65" y1="4.2287" x2="20.36" y2="4.2287">
				<stop  offset="0" style="stop-color:#00639B"/>
				<stop  offset="1" style="stop-color:#63C2D0"/>
			</linearGradient>
			<path class="st2" d="M20.4,0.5c0.3,2.3,0.9,4.9,1.9,7.5c3.2-1,6-2.4,8.4-4.1C27.8,1.9,24.3,0.6,20.4,0.5z"/>
			<linearGradient id="SVGID_3_" gradientUnits="userSpaceOnUse" x1="29.5264" y1="20.8836" x2="29.5264" y2="6.2411">
				<stop  offset="0" style="stop-color:#00639B"/>
				<stop  offset="1" style="stop-color:#63C2D0"/>
			</linearGradient>
			<path class="st3" d="M30.6,3.9C28.3,5.5,25.5,7,22.3,8c2.2,5.6,6.4,11.4,14.4,15.2c0.1-0.5,0.1-1,0.1-1.5v-6.6
				C36.8,10.7,34.4,6.6,30.6,3.9z"/>
			<linearGradient id="SVGID_4_" gradientUnits="userSpaceOnUse" x1="36.6736" y1="18.1617" x2="2.7951" y2="18.1617">
				<stop  offset="0" style="stop-color:#00639B"/>
				<stop  offset="1" style="stop-color:#63C2D0"/>
			</linearGradient>
			<path class="st4" d="M36.7,23.2c-8-3.8-12.2-9.6-14.4-15.2C17.5,9.4,11.7,9.7,5.1,7.6C3.9,9.2,3.1,11,2.8,12.9
				c8.6,3.8,13.1,9.9,15.3,15.7c4.6-1.4,10.2-1.7,16.5,0.2C35.7,27.1,36.4,25.2,36.7,23.2z"/>
			<linearGradient id="SVGID_5_" gradientUnits="userSpaceOnUse" x1="18.564" y1="37.9808" x2="39.425" y2="37.9808">
				<stop  offset="0" style="stop-color:#63C2D0"/>
				<stop  offset="1" style="stop-color:#D5E8D7"/>
			</linearGradient>
			<path class="st5" d="M18.7,30.1L18.7,30.1c0.7,2.2,1.2,4.4,1.4,6.4c0,0,0.1,0,0.1,0c0.4,2.6,1.8,8.7,5,11.2
				c4.2,3.2,3.8-2.9,0.8-6.1c-1.8-1.9-3-3.6-3.7-5.2c0.4-0.1,0.8-0.1,1.3-0.2c1,2,3.8,7.4,7.6,8c4.7,0.8,2.8-4.7-0.8-6.1
				c-1.9-0.7-3.4-1.6-4.4-2.6c0.5-0.2,1.1-0.4,1.6-0.6c0.9,0.7,5.8,4.4,9.8,2.2c4.4-2.5,0.9-6.1-2.8-4.8C33,32.7,31.7,33,30.6,33
				c1.2-0.9,2.2-1.8,3.1-2.9h0c0.3-0.4,0.7-0.9,0.9-1.3c-6.4-1.9-11.9-1.6-16.5-0.2C18.3,29.1,18.5,29.6,18.7,30.1z"/>
			<linearGradient id="SVGID_6_" gradientUnits="userSpaceOnUse" x1="19.2262" y1="22.0691" x2="2.0432" y2="22.0691">
				<stop  offset="0" style="stop-color:#00639B"/>
				<stop  offset="1" style="stop-color:#63C2D0"/>
			</linearGradient>
			<path class="st6" d="M18.1,28.6c-2.3-5.8-6.7-11.8-15.3-15.7c-0.1,0.7-0.2,1.5-0.2,2.3v6.6c0,3.1,1.1,6,3.1,8.3l8,1.2l5-1.2
				C18.5,29.6,18.3,29.1,18.1,28.6z"/>
			<linearGradient id="SVGID_7_" gradientUnits="userSpaceOnUse" x1="9.094947e-13" y1="38.5432" x2="20.1181" y2="38.5432">
				<stop  offset="0" style="stop-color:#63C2D0"/>
				<stop  offset="1" style="stop-color:#D5E8D7"/>
			</linearGradient>
			<path class="st7" d="M14.1,30.1c-1.8,0.9-3.5,1.9-4.9,2.9c-1.2,0-2.6-0.2-4.4-0.8c-3.7-1.3-7.2,2.3-2.8,4.8
				c4,2.2,8.9-1.4,9.8-2.2c0.5,0.2,1,0.4,1.6,0.6c-1.1,1-2.5,1.8-4.4,2.6c-3.7,1.4-5.5,6.9-0.8,6.1c3.8-0.7,6.7-6,7.6-8
				c0.4,0.1,0.8,0.2,1.3,0.2c-0.7,1.6-1.9,3.3-3.7,5.2c-3.1,3.2-3.4,9.3,0.8,6.1c2.2-1.7,5-11.1,5-11.2c0.2,0,0.4,0,0.6,0
				c0.1,0,0.3,0,0.4,0c-0.5-3.2-0.8-4.3-1.4-6.4l0,0l0,0v0l0,0l0,0l0,0v0l0,0l0,0l0,0l0,0l0,0l0,0l0,0l0,0l0,0l0,0l0,0l0,0l0,0l0,0
				l0,0l0,0l0,0l0,0l0,0l0,0l0,0l0,0l0,0l0,0l0,0l0,0l0,0l0,0l0,0l0,0l0,0l0,0l0,0l0,0l0,0l0,0l0,0l0,0l0,0l0,0l0,0l0,0l0,0l0,0l0,0
				l0,0l0,0l0,0l0,0l0,0l0,0l0,0l0,0l0,0l0,0l0,0l0,0l0,0l0,0l0,0l0,0l0,0l0,0l0,0l0,0l0,0l0,0l0,0l0,0l0,0l0,0l0,0l0,0l0,0l0,0l0,0
				l0,0l0,0l0,0l0,0l0,0l0,0l0,0l0,0l0,0l0,0l0,0l0,0l0,0l0,0l0,0l0,0l0,0l0,0l0,0l0,0l0,0l0,0l0,0l0,0l0,0l0,0l0,0l0,0l0,0l0,0l0,0
				l0,0l0,0l0,0l0,0l0,0l0,0l0,0l0,0l0,0l0,0l0,0l0,0l0,0C16.7,29,15.4,29.5,14.1,30.1L14.1,30.1L14.1,30.1L14.1,30.1z"/>
			<linearGradient id="SVGID_8_" gradientUnits="userSpaceOnUse" x1="14.2885" y1="32.4058" x2="-0.1375" y2="32.4058">
				<stop  offset="0" style="stop-color:#63C2D0"/>
				<stop  offset="1" style="stop-color:#D5E8D7"/>
			</linearGradient>
			<path class="st8" d="M9.2,33c1.5-1.1,3.7-2.3,5.5-3.2c-5.7,0.9-8,0.3-10.9-2.6c1.3,2.6,3.7,5,4.9,5.8c-1.1,0-2.4-0.3-3.9-0.8
				c-3.7-1.3-7.2,2.3-2.8,4.8c0.6,0.4,1.3,0.6,1.9,0.7c1.3-1.4,2.9-3,5-4.5C9,33.1,9.1,33.1,9.2,33z"/>
		</g>
		<g>
			<circle class="st9" cx="26.7" cy="20.4" r="6.1"/>
			<path class="st10" d="M26.7,17.1c0.3,0,0.7,0,1,0.1c-0.6,0.3-1,0.9-1,1.5c0,0.9,0.8,1.7,1.7,1.7c0.7,0,1.3-0.4,1.5-1
				c0.1,0.3,0.1,0.6,0.1,1c0,1.8-1.5,3.3-3.3,3.3c-1.8,0-3.3-1.5-3.3-3.3C23.4,18.5,24.9,17.1,26.7,17.1L26.7,17.1z M25.7,20.8
				c-0.4,0-0.6,0.3-0.6,0.6c0,0.4,0.3,0.6,0.6,0.6c0.4,0,0.6-0.3,0.6-0.6C26.4,21.1,26.1,20.8,25.7,20.8z"/>
			<circle class="st9" cx="12.7" cy="20.4" r="6.1"/>
			<path class="st10" d="M12.8,17.1c0.3,0,0.7,0,1,0.1c-0.6,0.3-1,0.9-1,1.5c0,0.9,0.8,1.7,1.7,1.7c0.7,0,1.3-0.4,1.5-1
				c0.1,0.3,0.1,0.6,0.1,1c0,1.8-1.5,3.3-3.3,3.3c-1.8,0-3.3-1.5-3.3-3.3C9.4,18.5,10.9,17.1,12.8,17.1L12.8,17.1z M11.8,20.8
				c-0.4,0-0.6,0.3-0.6,0.6c0,0.4,0.3,0.6,0.6,0.6c0.4,0,0.6-0.3,0.6-0.6C12.4,21.1,12.1,20.8,11.8,20.8z"/>
		</g>
	</g>
</g>
</svg>
