<?xml version="1.0" encoding="UTF-8" standalone="no"?>
<svg
   xmlns:dc="http://purl.org/dc/elements/1.1/"
   xmlns:cc="http://creativecommons.org/ns#"
   xmlns:rdf="http://www.w3.org/1999/02/22-rdf-syntax-ns#"
   xmlns:svg="http://www.w3.org/2000/svg"
   xmlns="http://www.w3.org/2000/svg"
   xmlns:sodipodi="http://sodipodi.sourceforge.net/DTD/sodipodi-0.dtd"
   xmlns:inkscape="http://www.inkscape.org/namespaces/inkscape"
   id="Layer_4"
   viewBox="95 151 1712.8625 223.44833"
   version="1.1"
   inkscape:version="0.91 r13725"
   sodipodi:docname="gdg-logo.svg"
   width="1712.8625"
   height="223.44833">
  <metadata
     id="metadata4232">
    <rdf:RDF>
      <cc:Work
         rdf:about="">
        <dc:format>image/svg+xml</dc:format>
        <dc:type
           rdf:resource="http://purl.org/dc/dcmitype/StillImage" />
        <dc:title></dc:title>
      </cc:Work>
    </rdf:RDF>
  </metadata>
  <defs
     id="defs4230" />
  <sodipodi:namedview
     pagecolor="#ffffff"
     bordercolor="#666666"
     borderopacity="1"
     objecttolerance="10"
     gridtolerance="10"
     guidetolerance="10"
     inkscape:pageopacity="0"
     inkscape:pageshadow="2"
     inkscape:window-width="1282"
     inkscape:window-height="760"
     id="namedview4228"
     showgrid="false"
     showguides="true"
     inkscape:guide-bbox="true"
     fit-margin-top="0"
     fit-margin-left="0"
     fit-margin-right="0"
     fit-margin-bottom="0"
     inkscape:zoom="0.21291748"
     inkscape:cx="1211.7851"
     inkscape:cy="57.027605"
     inkscape:window-x="0"
     inkscape:window-y="0"
     inkscape:window-maximized="0"
     inkscape:current-layer="XMLID_6_">
    <sodipodi:guide
       position="911.62455,207.76588"
       orientation="0,1"
       id="guide4238" />
    <sodipodi:guide
       position="936.53234,43.374559"
       orientation="0,1"
       id="guide4240" />
  </sodipodi:namedview>
  <style
     id="style4213">.st0{fill:#757575;}</style>
  <g
     id="XMLID_6_">
    <path
       id="XMLID_3_"
       class="st0"
       d="m 454.9,255.4 c 0,22 -6.5,39.6 -19.6,52.7 -14.8,15.6 -34.1,23.4 -57.9,23.4 -22.8,0 -42.1,-7.9 -58.1,-23.7 -15.9,-15.8 -23.9,-35.4 -23.9,-58.7 0,-23.3 8,-42.9 23.9,-58.7 15.9,-15.8 35.3,-23.7 58.1,-23.7 11.3,0 22.1,2.2 32.4,6.6 10.3,4.4 18.5,10.3 24.7,17.6 l -13.9,13.9 C 410.1,192.2 395.7,186 377.3,186 c -16.6,0 -31,5.8 -43.1,17.5 -12.1,11.7 -18.2,26.8 -18.2,45.5 0,18.7 6.1,33.8 18.2,45.5 12.1,11.7 26.5,17.5 43.1,17.5 17.6,0 32.3,-5.9 44.1,-17.6 7.6,-7.6 12,-18.3 13.2,-31.9 l -57.3,0 0,-19 76.4,0 c 0.8,4.1 1.2,8.1 1.2,11.9 z"
       inkscape:connector-curvature="0"
       style="fill:#757575" />
    <path
       id="XMLID_20_"
       class="st0"
       d="m 475.3,327.9 0,-157.8 48.2,0 c 24.2,0 43.6,7.3 58.2,21.9 14.5,14.6 21.8,33.6 21.8,57 0,23.4 -7.3,42.3 -21.8,57 -14.5,14.6 -33.9,21.9 -58.2,21.9 l -48.2,0 z m 20.3,-19.4 28,0 c 18.2,0 32.6,-5.2 43.3,-15.6 10.6,-10.4 16,-25 16,-43.8 0,-18.7 -5.3,-33.2 -16,-43.7 -10.7,-10.5 -25.1,-15.8 -43.3,-15.8 l -28,0 0,118.9 z"
       inkscape:connector-curvature="0"
       style="fill:#757575" />
    <path
       id="XMLID_23_"
       class="st0"
       d="m 776,255.4 c 0,22 -6.5,39.6 -19.6,52.7 -14.8,15.6 -34.1,23.4 -57.9,23.4 -22.8,0 -42.1,-7.9 -58.1,-23.7 -15.9,-15.8 -23.9,-35.4 -23.9,-58.7 0,-23.3 8,-42.9 23.9,-58.7 15.9,-15.8 35.3,-23.7 58.1,-23.7 11.3,0 22.1,2.2 32.4,6.6 10.3,4.4 18.5,10.3 24.7,17.6 l -13.9,13.9 C 731.2,192.2 716.8,186 698.4,186 c -16.6,0 -31,5.8 -43.1,17.5 -12.1,11.7 -18.2,26.8 -18.2,45.5 0,18.7 6.1,33.8 18.2,45.5 12.1,11.7 26.5,17.5 43.1,17.5 17.6,0 32.3,-5.9 44.1,-17.6 7.6,-7.6 12,-18.3 13.2,-31.9 l -57.3,0 0,-19 76.4,0 c 0.8,4.1 1.2,8.1 1.2,11.9 z"
       style="fill:#757575;fill-opacity:1"
       inkscape:connector-curvature="0" />
    <g
       style="font-style:normal;font-weight:normal;font-size:220.38793945px;line-height:125%;font-family:sans-serif;letter-spacing:0px;word-spacing:0px;fill:#757575;fill-opacity:1;stroke:none;stroke-width:1px;stroke-linecap:butt;stroke-linejoin:miter;stroke-opacity:1"
       id="text4234">
      <path
         d="m 826.98552,167.94226 21.73749,0 0,65.85811 78.98669,0 0,-65.85811 21.73748,0 0,160.66367 -21.73748,0 0,-76.51164 -78.98669,0 0,76.51164 -21.73749,0 0,-160.66367 z"
         style=""
         id="path4243" />
      <path
         d="m 1046.6202,268.02077 q -23.9973,0 -33.2519,5.48817 -9.2546,5.48818 -9.2546,18.72437 0,10.5459 6.8871,16.78736 6.9948,6.13384 18.9396,6.13384 16.4646,0 26.3648,-11.62202 10.0079,-11.72963 10.0079,-31.09966 l 0,-4.41206 -19.6929,0 z m 39.4933,-8.17846 0,68.76362 -19.8004,0 0,-18.29392 q -6.7796,10.97635 -16.895,16.2493 -10.1155,5.16534 -24.7506,5.16534 -18.5092,0 -29.48551,-10.33068 -10.86874,-10.4383 -10.86874,-27.87133 0,-20.33853 13.55902,-30.66922 13.66663,-10.33068 40.67703,-10.33068 l 27.7638,0 0,-1.937 q 0,-13.66664 -9.0394,-21.09182 -8.9317,-7.53279 -25.181,-7.53279 -10.3307,0 -20.1233,2.47506 -9.7927,2.47506 -18.83203,7.42518 l 0,-18.29392 q 10.86873,-4.19684 21.09183,-6.24146 10.2231,-2.15222 19.9081,-2.15222 26.1495,0 39.0629,13.55902 12.9133,13.55902 12.9133,41.10752 z"
         style=""
         id="path4245" />
      <path
         d="m 1221.2733,231.2177 q 7.4252,-13.3438 17.7559,-19.69287 10.3307,-6.34906 24.3201,-6.34906 18.832,0 29.0551,13.23619 10.2231,13.12858 10.2231,37.44873 l 0,72.74524 -19.9081,0 0,-72.09957 q 0,-17.32542 -6.1339,-25.7191 -6.1338,-8.39369 -18.7243,-8.39369 -15.3884,0 -24.3202,10.22308 -8.9317,10.22307 -8.9317,27.87132 l 0,68.11796 -19.9081,0 0,-72.09957 q 0,-17.43303 -6.1339,-25.7191 -6.1338,-8.39369 -18.9395,-8.39369 -15.1732,0 -24.105,10.33069 -8.9317,10.22307 -8.9317,27.76371 l 0,68.11796 -19.9081,0 0,-120.52466 19.9081,0 0,18.72437 q 6.7795,-11.08397 16.2493,-16.35692 9.4698,-5.27295 22.4908,-5.27295 13.1285,0 22.2755,6.6719 9.2546,6.6719 13.6666,19.37003 z"
         style=""
         id="path4247" />
      <path
         d="m 1428.3175,268.45121 q 0,-21.84509 -9.0394,-34.22039 -8.9317,-12.48291 -24.643,-12.48291 -15.7112,0 -24.7506,12.48291 -8.9317,12.3753 -8.9317,34.22039 0,21.84509 8.9317,34.328 9.0394,12.3753 24.7506,12.3753 15.7113,0 24.643,-12.3753 9.0394,-12.48291 9.0394,-34.328 z m -67.3647,-42.07602 q 6.2414,-10.76113 15.7112,-15.92647 9.5774,-5.27295 22.8136,-5.27295 21.9527,0 35.6194,17.43303 13.7742,17.43303 13.7742,45.84241 0,28.40938 -13.7742,45.84241 -13.6667,17.43303 -35.6194,17.43303 -13.2362,0 -22.8136,-5.16534 -9.4698,-5.27295 -15.7112,-16.03408 l 0,18.0787 -19.9081,0 0,-167.44318 19.9081,0 0,65.21244 z"
         style=""
         id="path4249" />
      <path
         d="m 1479.6481,281.04173 0,-72.96046 19.8005,0 0,72.20718 q 0,17.1102 6.6719,25.7191 6.6719,8.5013 20.0157,8.5013 16.034,0 25.2886,-10.22308 9.3622,-10.22307 9.3622,-27.87132 l 0,-68.33318 19.8005,0 0,120.52466 -19.8005,0 0,-18.50915 q -7.21,10.97636 -16.7874,16.35692 -9.4698,5.27295 -22.0603,5.27295 -20.769,0 -31.5301,-12.91335 -10.7611,-12.91336 -10.7611,-37.77157 z"
         style=""
         id="path4251" />
      <path
         d="m 1691.4271,226.59042 q -3.336,-1.93701 -7.3176,-2.7979 -3.874,-0.9685 -8.6089,-0.9685 -16.7874,0 -25.8267,10.97635 -8.9317,10.86874 -8.9317,31.31489 l 0,63.49067 -19.9081,0 0,-120.52466 19.9081,0 0,18.72437 q 6.2414,-10.97635 16.2493,-16.24931 10.0078,-5.38056 24.3201,-5.38056 2.0446,0 4.5197,0.32283 2.475,0.21522 5.4882,0.75328 l 0.1076,20.33854 z"
         style=""
         id="path4253" />
      <path
         d="m 1788.062,266.94465 q 0,-21.52226 -8.9317,-33.3595 -8.8241,-11.83724 -24.8582,-11.83724 -15.9265,0 -24.8582,11.83724 -8.8242,11.83724 -8.8242,33.3595 0,21.41465 8.8242,33.25189 8.9317,11.83725 24.8582,11.83725 16.0341,0 24.8582,-11.83725 8.9317,-11.83724 8.9317,-33.25189 z m 19.8005,46.70331 q 0,30.77683 -13.6666,45.7348 -13.6667,15.06558 -41.8608,15.06558 -10.4383,0 -19.6929,-1.61417 -9.2546,-1.50656 -17.9711,-4.7349 l 0,-19.26242 q 8.7165,4.7349 17.2178,6.99474 8.5013,2.25983 17.3254,2.25983 19.4777,0 29.1627,-10.22307 9.685,-10.11546 9.685,-30.66922 l 0,-9.79263 q -6.1338,10.65352 -15.7112,15.92647 -9.5774,5.27296 -22.9212,5.27296 -22.168,0 -35.727,-16.89498 -13.559,-16.89497 -13.559,-44.7663 0,-27.97894 13.559,-44.87391 13.559,-16.89497 35.727,-16.89497 13.3438,0 22.9212,5.27295 9.5774,5.27295 15.7112,15.92647 l 0,-18.29392 19.8005,0 0,105.56669 z"
         style=""
         id="path4255" />
    </g>
  </g>
  <g
     id="XMLID_261_">
    <path
       id="XMLID_259_"
       class="st0"
       d="M 127.3,151 95,151 187.3,311 203.5,283 127.3,151 Z"
       inkscape:connector-curvature="0"
       style="fill:#757575" />
    <path
       id="XMLID_258_"
       class="st0"
       d="m 215.9,242 -52.6,-91 -32.2,0 74.3,128.8 10.5,-18.2 c 1.7,-2.8 2.8,-6.2 2.8,-9.8 -0.1,-3.6 -1.1,-6.9 -2.8,-9.8 z"
       inkscape:connector-curvature="0"
       style="fill:#757575" />
    <path
       id="XMLID_257_"
       class="st0"
       d="m 151.3,255.1 -55.4,95.9 32.3,0 39.3,-68 -16.2,-27.9 z"
       inkscape:connector-curvature="0"
       style="fill:#757575" />
    <path
       id="XMLID_256_"
       class="st0"
       d="M 169.3,286.3 132,351 l 32.2,0 21.3,-36.8 -16.2,-27.9 z"
       inkscape:connector-curvature="0"
       style="fill:#757575" />
  </g>
</svg>
